<svg xmlns="http://www.w3.org/2000/svg" viewBox="0 0 43.33 57.73"><defs><style>.cls-1{fill:#1c75bc;}</style></defs><g id="Layer_2" data-name="Layer 2"><g id="Layer_1-2" data-name="Layer 1"><circle class="cls-1" cx="21.8" cy="35.33" r="5.9"/><path d="M21.8,13.26a22.74,22.74,0,0,1,11.71,3.23V12.85A12.85,12.85,0,0,0,20.66,0H0V29.06A23,23,0,0,1,21.8,13.26Z"/><path d="M21.8,14.68a21.52,21.52,0,0,0-13.9,38l3.58-5.49A15,15,0,1,1,21.8,51.26a15,15,0,0,1-5.65-1.09l-3.58,5.49a21.29,21.29,0,0,0,9.23,2.07,21.53,21.53,0,1,0,0-43Z"/></g></g></svg>