<svg xmlns="http://www.w3.org/2000/svg" viewBox="0 0 180.4 57.73"><defs><style>.cls-1{fill:#231f20;}.cls-2{fill:#1c75bc;}</style></defs><g id="Layer_2" data-name="Layer 2"><g id="Layer_1-2" data-name="Layer 1"><path class="cls-1" d="M54.27,17.7c3.46,0,5.73,1.9,5.73,4.61a3.85,3.85,0,0,1-1.49,3.39,4.42,4.42,0,0,1,3,4.56c0,2.95-2.29,5.1-5.95,5.1H48.32V17.7Zm2.46,4.95c0-1.61-1.19-2.15-2.87-2.15H51.49V25h2.37C55.54,25,56.73,24.26,56.73,22.65Zm1.54,7.46c0-1.44-1.17-2.29-2.8-2.29h-4v4.73h4A2.54,2.54,0,0,0,58.27,30.11Z"/><path class="cls-1" d="M75.17,17.7v2.88H67.41V25h7.22v2.88H67.41v4.61h7.76v2.88H64.24V17.7Z"/><path class="cls-1" d="M88.63,35.36,83.82,28,81.5,28v7.37H78.33V17.7h6.83c3.39,0,6.08,1.61,6.08,5.09a5,5,0,0,1-4,4.93l5,7.64ZM81.5,25.23h3.27c1.93,0,3.2-.8,3.2-2.44s-1.27-2.21-3.2-2.21H81.5Z"/><path class="cls-1" d="M92.55,20.58V17.7h12.29v2.88h-4.56V35.36H97.11V20.58Z"/><path class="cls-1" d="M118.1,17.7v2.88h-7.75V25h7.22v2.88h-7.22v4.61h7.75v2.88H107.18V17.7Z"/><path class="cls-1" d="M135.76,35.36H132L127.22,28h-2.78v7.32h-3.17V17.7h3.17v9.73L131,17.7h3.71l-5.37,7.88Z"/><path class="cls-1" d="M51.49,39.78V57.44H48.32V39.78Z"/><path class="cls-1" d="M58.49,46.25l0,11.19H55.29V39.49h1L67.07,51l0-11.17h3.17V57.73h-1Z"/><path class="cls-1" d="M80.9,39.78a8.5,8.5,0,0,1,8.61,8.83,8.51,8.51,0,0,1-8.61,8.83H74.07V39.78ZM77.24,54.56h3.48a5.64,5.64,0,0,0,5.61-6,5.67,5.67,0,0,0-5.61-6H77.24Z"/><path class="cls-1" d="M100.45,57.73a9.15,9.15,0,1,1,9.1-9.14A9.06,9.06,0,0,1,100.45,57.73Zm0-3a6.17,6.17,0,1,0-5.93-6.17A6.06,6.06,0,0,0,100.45,54.76Z"/><path class="cls-1" d="M115.54,46.25l0,11.19h-3.18V39.49h1L124.13,51l0-11.17h3.17V57.73h-1Z"/><path class="cls-1" d="M142,39.78v2.88h-7.75v4.42h7.22V50h-7.22v4.61H142v2.88H131.12V39.78Z"/><path class="cls-1" d="M149.72,42.42A1.69,1.69,0,0,0,148,44.08c0,.7.49,1.39,1.56,1.75l1.49.54c2.49.9,5,2.56,5,5.76,0,3.41-2.71,5.6-6.31,5.6a6.32,6.32,0,0,1-6-3.58l2.52-1.83a3.86,3.86,0,0,0,3.7,2.44,2.64,2.64,0,0,0,2.88-2.66c0-1.51-1.27-2.34-2.61-2.8l-1.56-.57c-2.39-.85-3.78-2.39-3.8-4.7a4.77,4.77,0,0,1,4.87-4.54,5.84,5.84,0,0,1,5,2.49l-2.36,1.85A3.22,3.22,0,0,0,149.72,42.42Z"/><path class="cls-1" d="M161.84,39.78V57.44h-3.17V39.78Z"/><path class="cls-1" d="M175.76,54.37h-7.29l-1.29,3.07h-3.39l7.83-17.95h1l7.81,17.95h-3.35Zm-1.22-2.88-2.43-5.76-2.42,5.76Z"/><circle class="cls-2" cx="21.8" cy="35.33" r="5.9"/><path d="M21.8,13.26a22.74,22.74,0,0,1,11.71,3.23V12.85A12.85,12.85,0,0,0,20.66,0H0V29.06A23,23,0,0,1,21.8,13.26Z"/><path d="M21.8,14.68a21.52,21.52,0,0,0-13.9,38l3.58-5.49A15,15,0,1,1,21.8,51.26a15,15,0,0,1-5.65-1.09l-3.58,5.49a21.29,21.29,0,0,0,9.23,2.07,21.53,21.53,0,1,0,0-43Z"/></g></g></svg>